<?xml version="1.0" encoding="utf-8"?>
<!-- Generator: Adobe Illustrator 26.0.2, SVG Export Plug-In . SVG Version: 6.00 Build 0)  -->
<svg version="1.1" xmlns="http://www.w3.org/2000/svg" xmlns:xlink="http://www.w3.org/1999/xlink" x="0px" y="0px"
	 viewBox="0 0 316.2 131.5" style="enable-background:new 0 0 316.2 131.5;" xml:space="preserve">
<style type="text/css">
	.st0{fill:#FFFFFF;}
	.st1{fill:#F2F2F2;}
	.st2{fill:#DD361C;}
	.st3{fill:none;stroke:#DD361C;stroke-width:2;stroke-miterlimit:10;}
	.st4{fill:none;stroke:#F2F2F2;stroke-width:11.1102;stroke-miterlimit:10;}
	.st5{fill:none;stroke:#105BD8;stroke-width:11.1102;stroke-miterlimit:10;}
	.st6{fill:#105BD8;}
	
		.st7{clip-path:url(#SVGID_00000056428504933563857610000003093367209237370256_);fill:none;stroke:#F2F2F2;stroke-width:11.1102;stroke-miterlimit:10;}
	.st8{clip-path:url(#SVGID_00000056428504933563857610000003093367209237370256_);}
	
		.st9{clip-path:url(#SVGID_00000134959099894588422500000000784412489662368150_);fill:none;stroke:#F2F2F2;stroke-width:11.1102;stroke-miterlimit:10;}
	
		.st10{clip-path:url(#SVGID_00000134959099894588422500000000784412489662368150_);fill:url(#SVGID_00000081618220714538679970000002976491720782196397_);}
	.st11{clip-path:url(#SVGID_00000139275728983824288120000015071861919722832037_);}
</style>
<g id="Layer_3">
</g>
<g id="Layer_1">
	<g>
		<g>
			<path class="st6" d="M17.3,65.4c-0.4-0.5-0.6-1.1-0.6-2c0-1.3,0.5-2.3,1.4-2.9c0.9-0.6,2.2-1,3.7-1h0.7V44.3L6.1,18.5H2.3
				c-0.7,0-1.3-0.2-1.7-0.7c-0.4-0.5-0.6-1.1-0.6-2c0-1.3,0.5-2.3,1.4-2.9c0.9-0.6,2.2-1,3.7-1h20.4c1,0,1.5,0.6,1.5,1.7
				c0,0.9-0.3,1.7-0.9,2.2s-1.5,1-2.8,1.4L20,18.4L30.5,35l10.9-16.5h-3.7c-0.7,0-1.3-0.2-1.7-0.7c-0.4-0.5-0.6-1.1-0.6-2
				c0-1.3,0.5-2.3,1.4-2.9c0.9-0.6,2.2-1,3.7-1h15.1c1,0,1.5,0.5,1.5,1.6c0,1.2-1,2.3-3,3.3l-3.9,1.8l-16.1,24v17l3,1.5
				c1.3,0.6,2.2,1.2,2.7,1.7c0.5,0.5,0.7,1.1,0.7,1.8c0,0.5-0.1,0.9-0.3,1.2c-0.2,0.3-0.6,0.4-1.2,0.4H19
				C18.2,66.1,17.7,65.9,17.3,65.4z"/>
			<path class="st6" d="M61.4,65.6c-0.3-0.4-0.5-0.9-0.5-1.7c0-1.1,0.4-1.9,1.1-2.5c0.7-0.6,2.1-1.3,4.1-2.1l1-0.4V19.1l-1-0.4
				c-2-0.8-3.3-1.5-4.1-2.1c-0.7-0.6-1.1-1.4-1.1-2.5c0-0.8,0.2-1.4,0.5-1.7c0.3-0.4,0.7-0.5,1.2-0.5h26.8c6.1,0,10.8,1.4,14,4.1
				c3.2,2.7,4.8,6.3,4.8,10.8c0,2.3-0.7,4.5-2.1,6.5c-1.4,2-3.3,3.4-5.7,4.4v0.3c3.4,1,6.1,2.6,7.9,5c1.8,2.3,2.7,5,2.7,8
				c0,4.7-1.7,8.5-5.1,11.2c-3.4,2.7-7.9,4.1-13.6,4.1H62.6C62.1,66.1,61.7,65.9,61.4,65.6z M88.9,34.9c2.4,0,4.3-0.7,5.6-2.2
				c1.3-1.5,2-3.4,2-5.7c0-2.3-0.7-4.2-2-5.7c-1.3-1.5-3.2-2.3-5.6-2.3H78.8v15.8H88.9z M90.7,58.9c2.8,0,5-0.7,6.4-2.1
				c1.5-1.4,2.2-3.5,2.2-6.1c0-2.7-0.7-4.8-2.2-6.4c-1.5-1.6-3.6-2.4-6.4-2.4H78.8v17H90.7z"/>
			<path class="st6" d="M125.3,65.9c-3.7-0.9-6.7-2-8.9-3.3v-13c0-0.6,0.2-1,0.5-1.4c0.3-0.3,0.8-0.5,1.4-0.5c1,0,1.8,0.4,2.3,1.1
				c0.6,0.7,1.2,2.2,2,4.4l1.5,4.4c1,0.6,2.5,1.2,4.5,1.6c1.9,0.5,4,0.7,6,0.7c3,0,5.5-0.5,7.5-1.5c2-1,3-2.6,3-4.8
				c0-1.5-0.4-2.8-1.1-3.9c-0.7-1.1-1.9-2.1-3.5-3.1c-1.6-1-4-2.2-7.2-3.7c-3.5-1.6-6.4-3.2-8.7-4.7c-2.3-1.5-4.3-3.3-5.8-5.5
				c-1.5-2.2-2.3-4.7-2.3-7.5c0-3.2,0.9-5.9,2.7-8c1.8-2.2,4.1-3.8,6.9-4.9c2.9-1.1,6-1.6,9.4-1.6c3.4,0,6.8,0.5,10.1,1.5
				c3.3,1,6,2.3,8.3,4v12.1c0,0.6-0.2,1-0.5,1.4c-0.3,0.3-0.8,0.5-1.4,0.5c-1,0-1.8-0.4-2.3-1.1c-0.6-0.7-1.2-2.2-1.9-4.4l-1.5-4.4
				c-2.6-1.5-5.8-2.2-9.7-2.2c-2.5,0-4.5,0.5-6,1.5c-1.5,1-2.3,2.4-2.3,4.4c0,1.2,0.4,2.4,1.2,3.3c0.8,1,2,1.9,3.4,2.7
				c1.5,0.8,3.6,1.9,6.6,3.4l3.1,1.5c3,1.5,5.5,2.9,7.5,4.4c2,1.5,3.6,3.3,4.8,5.4c1.2,2.2,1.8,4.7,1.8,7.8c0,5-1.9,8.7-5.8,11.2
				c-3.9,2.5-9,3.7-15.2,3.7C132.5,67.3,129,66.8,125.3,65.9z"/>
		</g>
		<g>
			<path class="st6" d="M170.5,35c-1.6-0.4-2.8-0.9-3.8-1.4v-5.5c0-0.2,0.1-0.4,0.2-0.6c0.1-0.1,0.3-0.2,0.6-0.2
				c0.4,0,0.7,0.2,1,0.5c0.2,0.3,0.5,0.9,0.8,1.9l0.6,1.8c0.4,0.3,1.1,0.5,1.9,0.7c0.8,0.2,1.7,0.3,2.6,0.3c1.3,0,2.3-0.2,3.2-0.6
				c0.9-0.4,1.3-1.1,1.3-2c0-0.6-0.1-1.2-0.4-1.6c-0.3-0.5-0.8-0.9-1.5-1.3c-0.7-0.4-1.7-1-3-1.6c-1.5-0.7-2.7-1.3-3.7-2
				s-1.8-1.4-2.4-2.3c-0.6-0.9-1-2-1-3.2c0-1.3,0.4-2.5,1.1-3.4c0.7-0.9,1.7-1.6,2.9-2.1c1.2-0.5,2.5-0.7,4-0.7
				c1.5,0,2.9,0.2,4.3,0.6c1.4,0.4,2.6,1,3.5,1.7v5.1c0,0.2-0.1,0.4-0.2,0.6c-0.1,0.1-0.3,0.2-0.6,0.2c-0.4,0-0.7-0.2-1-0.5
				s-0.5-0.9-0.8-1.9l-0.6-1.8c-1.1-0.6-2.5-0.9-4.1-0.9c-1.1,0-1.9,0.2-2.5,0.6c-0.6,0.4-1,1-1,1.8c0,0.5,0.2,1,0.5,1.4
				c0.4,0.4,0.8,0.8,1.5,1.1c0.6,0.4,1.5,0.8,2.8,1.4l1.3,0.6c1.3,0.6,2.3,1.2,3.2,1.8c0.8,0.6,1.5,1.4,2,2.3c0.5,0.9,0.8,2,0.8,3.3
				c0,2.1-0.8,3.7-2.5,4.8c-1.6,1.1-3.8,1.6-6.5,1.6C173.6,35.6,172.1,35.4,170.5,35z"/>
			<path class="st6" d="M185.2,41c0-0.5,0.2-0.9,0.5-1.2c0.4-0.3,0.9-0.4,1.5-0.4h0.3v-18h-1.5c-0.6,0-0.9-0.4-0.9-1.1
				c0-0.5,0.2-0.9,0.5-1.2c0.4-0.3,0.9-0.4,1.5-0.4h4.8v1.4l0.1,0.1c1.4-1.2,2.9-1.8,4.6-1.8c1.4,0,2.6,0.3,3.8,0.9
				c1.2,0.6,2.1,1.6,2.8,2.9c0.7,1.3,1.1,2.9,1.1,4.9c0,2.7-0.8,4.8-2.3,6.2c-1.5,1.5-3.6,2.2-6.2,2.2c-0.6,0-1.2-0.1-1.9-0.2
				s-1.4-0.3-1.9-0.6v4.7l1.2,0.6c0.5,0.2,0.9,0.5,1.1,0.6c0.2,0.2,0.3,0.4,0.3,0.7c0,0.2,0,0.4-0.1,0.5c-0.1,0.1-0.2,0.1-0.5,0.1
				h-8C185.5,42.1,185.2,41.7,185.2,41z M198.6,31.4c0.8-0.9,1.2-2.3,1.2-4.2c0-2-0.4-3.5-1.1-4.4c-0.7-1-1.8-1.5-3.1-1.5
				c-0.9,0-1.7,0.3-2.4,0.9c-0.7,0.6-1.1,1.3-1.1,2.3V32c0.4,0.2,0.9,0.4,1.5,0.5c0.6,0.1,1.1,0.2,1.6,0.2
				C196.7,32.7,197.8,32.3,198.6,31.4z"/>
			<path class="st6" d="M208.1,34.3c-1-0.8-1.5-2-1.5-3.4c0-1.7,0.6-3,1.8-3.8s2.8-1.3,4.8-1.6l3.5-0.5v-1.1c0-0.8-0.3-1.5-0.8-1.9
				c-0.5-0.5-1.2-0.7-2.2-0.7c-0.6,0-1.2,0.1-1.9,0.3c-0.7,0.2-1.2,0.4-1.5,0.6l-0.4,1.3c-0.1,0.5-0.3,0.8-0.6,1.1s-0.6,0.4-1,0.4
				c-0.3,0-0.5-0.1-0.6-0.2c-0.1-0.1-0.2-0.3-0.2-0.5v-3.8c1-0.5,2.1-1,3.3-1.3c1.2-0.3,2.5-0.5,3.6-0.5c2,0,3.7,0.5,4.9,1.4
				c1.2,0.9,1.9,2.3,1.9,4.1v8.5l1,0.5c0.5,0.2,0.9,0.5,1.1,0.7c0.2,0.2,0.3,0.4,0.3,0.7c0,0.2,0,0.4-0.1,0.5s-0.2,0.1-0.5,0.1h-6.3
				v-1.5h-0.1c-0.6,0.6-1.3,1.1-2.1,1.5c-0.9,0.4-1.8,0.5-2.7,0.5C210.3,35.6,209.1,35.2,208.1,34.3z M215.6,31.7
				c0.7-0.6,1-1.4,1-2.2v-1.9L214,28c-1.9,0.3-2.8,1.2-2.8,2.6c0,0.6,0.2,1,0.5,1.4c0.4,0.4,0.8,0.5,1.5,0.5
				C214.1,32.6,214.9,32.3,215.6,31.7z"/>
			<path class="st6" d="M228.6,34.5c-1.4-0.7-2.4-1.6-3.2-2.9c-0.8-1.3-1.2-2.8-1.2-4.6c0-1.9,0.4-3.4,1.2-4.7
				c0.8-1.3,1.8-2.2,3.1-2.8c1.3-0.6,2.7-0.9,4.1-0.9c1.3,0,2.4,0.2,3.5,0.6c1.1,0.4,2,0.9,2.6,1.4v3.7c0,0.2-0.1,0.4-0.2,0.5
				c-0.1,0.1-0.4,0.2-0.6,0.2c-0.7,0-1.2-0.5-1.5-1.5L236,22c-0.8-0.5-1.7-0.7-2.8-0.7c-1.3,0-2.3,0.5-3.2,1.4s-1.3,2.4-1.3,4.3
				s0.4,3.3,1.3,4.3c0.9,1,2,1.5,3.4,1.5c0.6,0,1.2-0.1,1.7-0.3c0.5-0.2,1.1-0.5,1.7-0.8c0.1,0,0.2-0.1,0.3-0.2
				c0.2-0.1,0.3-0.2,0.4-0.2c0.1,0,0.2,0,0.3,0c0.3,0,0.6,0.1,0.8,0.4c0.2,0.2,0.3,0.6,0.3,1c0,0.7-0.5,1.3-1.5,1.9
				c-1.2,0.7-2.7,1.1-4.5,1.1C231.5,35.6,229.9,35.2,228.6,34.5z"/>
			<path class="st6" d="M245.3,34.6c-1.3-0.6-2.4-1.6-3.2-2.8c-0.8-1.3-1.2-2.8-1.2-4.6c0-1.8,0.4-3.4,1.1-4.7c0.7-1.3,1.7-2.3,3-3
				c1.3-0.7,2.7-1,4.2-1c1.5,0,2.8,0.3,3.9,0.9c1.2,0.6,2.1,1.4,2.7,2.5c0.7,1.1,1,2.3,1,3.7c0,0.5-0.1,1-0.2,1.5
				c-0.1,0.5-0.3,1-0.5,1.4h-10.7c0,1.5,0.4,2.6,1.3,3.3s1.9,1.1,3.1,1.1c0.7,0,1.4-0.1,1.9-0.2s1.2-0.5,1.9-0.9
				c0.1,0,0.2-0.1,0.4-0.2c0.2-0.1,0.3-0.2,0.4-0.2c0.1,0,0.2,0,0.3,0c0.3,0,0.6,0.1,0.8,0.4c0.2,0.2,0.3,0.6,0.3,1
				c0,0.4-0.1,0.7-0.3,1c-0.2,0.3-0.6,0.6-1.1,0.8c-1.4,0.8-3.1,1.3-5,1.3C248.1,35.6,246.7,35.2,245.3,34.6z M252.2,25.6
				c0.1-0.3,0.2-0.6,0.2-1c0-1-0.3-1.8-0.8-2.4c-0.5-0.6-1.3-0.9-2.3-0.9s-1.8,0.4-2.5,1.1c-0.7,0.8-1.1,1.8-1.2,3.1H252.2z"/>
			<path class="st6" d="M171.4,65.8c-0.2-0.2-0.2-0.5-0.2-0.9c0-0.5,0.2-1,0.6-1.2c0.4-0.3,0.9-0.4,1.6-0.4h0.3v-17H169l-0.5,1.6
				c-0.2,0.7-0.4,1.2-0.6,1.5c-0.2,0.3-0.5,0.5-0.9,0.5c-0.3,0-0.5-0.1-0.7-0.2c-0.2-0.1-0.3-0.4-0.3-0.6v-5.8h20.1v5.8
				c0,0.3-0.1,0.5-0.3,0.6c-0.2,0.1-0.4,0.2-0.7,0.2c-0.4,0-0.7-0.2-0.9-0.5s-0.4-0.8-0.6-1.5l-0.5-1.6h-4.7v17.1l1.3,0.6
				c0.5,0.3,0.9,0.5,1.1,0.7c0.2,0.2,0.3,0.5,0.3,0.8c0,0.2,0,0.4-0.1,0.5c-0.1,0.1-0.3,0.2-0.5,0.2h-8.5
				C171.8,66.1,171.6,66,171.4,65.8z"/>
			<path class="st6" d="M189.1,65.6c-1.3-0.6-2.3-1.6-3.1-2.9c-0.8-1.3-1.2-2.9-1.2-4.8s0.4-3.5,1.1-4.8c0.8-1.3,1.8-2.2,3.1-2.8
				c1.3-0.6,2.7-0.9,4.2-0.9c1.5,0,2.9,0.3,4.2,0.9c1.3,0.6,2.3,1.6,3.1,2.8c0.8,1.3,1.1,2.9,1.1,4.8s-0.4,3.5-1.2,4.8
				c-0.8,1.3-1.8,2.2-3.1,2.9c-1.3,0.6-2.7,0.9-4.2,0.9C191.8,66.6,190.4,66.2,189.1,65.6z M196.1,62.3c0.6-1,1-2.4,1-4.3
				s-0.3-3.3-1-4.3c-0.6-1-1.6-1.5-2.8-1.5c-1.2,0-2.2,0.5-2.8,1.5c-0.6,1-1,2.4-1,4.3s0.3,3.3,1,4.3s1.6,1.5,2.8,1.5
				C194.5,63.7,195.5,63.3,196.1,62.3z"/>
			<path class="st6" d="M206.3,65.2c-1-0.9-1.5-2.2-1.5-3.7v-9h-1.5c-0.6,0-0.9-0.4-0.9-1.1c0-0.5,0.2-0.9,0.5-1.2
				c0.4-0.3,0.9-0.4,1.5-0.4h4.9V61c0,1.7,0.8,2.6,2.4,2.6c0.6,0,1.3-0.2,2-0.5c0.7-0.4,1.3-0.8,1.8-1.4v-9.2h-1.5
				c-0.6,0-0.9-0.4-0.9-1.1c0-0.5,0.2-0.9,0.5-1.2c0.4-0.3,0.9-0.4,1.5-0.4h4.9v13.6l1.2,0.6c0.5,0.2,0.9,0.5,1.1,0.6
				c0.2,0.2,0.3,0.4,0.3,0.7c0,0.2,0,0.4-0.1,0.5s-0.2,0.1-0.5,0.1h-6.4v-1.8h-0.1c-0.8,0.7-1.7,1.3-2.6,1.7
				c-0.9,0.4-1.9,0.6-2.9,0.6C208.7,66.6,207.3,66.1,206.3,65.2z"/>
			<path class="st6" d="M224.7,65c0-0.5,0.2-0.9,0.5-1.2c0.4-0.3,0.9-0.4,1.5-0.4h0.3v-11h-1.5c-0.6,0-0.9-0.4-0.9-1.1
				c0-0.5,0.2-0.9,0.5-1.2c0.4-0.3,0.9-0.4,1.5-0.4h4.7v3.4h0.1c0.7-1.1,1.6-1.9,2.6-2.6s2-1.1,3-1.1c0.7,0,1.3,0.2,1.7,0.6
				c0.4,0.4,0.6,1,0.6,1.6c0,0.4-0.1,0.8-0.2,1.2c-0.1,0.4-0.3,0.7-0.5,0.9c-2.7,0-5.1,0.7-7.1,2.2v7.4l1.2,0.6
				c0.5,0.2,0.9,0.5,1.1,0.6c0.2,0.2,0.3,0.4,0.3,0.7c0,0.2,0,0.4-0.1,0.5s-0.2,0.1-0.5,0.1h-8C224.9,66.1,224.7,65.7,224.7,65z"/>
			<path class="st6" d="M243.4,66c-1.2-0.4-2.1-0.8-2.8-1.3v-3.9c0-0.2,0.1-0.4,0.2-0.6c0.1-0.2,0.4-0.2,0.6-0.2
				c0.7,0,1.2,0.5,1.5,1.5l0.4,1.4c0.3,0.2,0.8,0.4,1.4,0.6s1.2,0.2,1.9,0.2c1.8,0,2.7-0.5,2.7-1.4c0-0.4-0.2-0.8-0.6-1.1
				c-0.4-0.3-1.1-0.7-2.3-1.3l-1.2-0.6c-1.7-0.9-2.9-1.7-3.6-2.4c-0.7-0.7-1-1.7-1-2.9c0-1.4,0.6-2.5,1.8-3.4
				c1.2-0.8,2.7-1.3,4.6-1.3c1.3,0,2.4,0.2,3.5,0.6c1.1,0.4,2,0.9,2.6,1.4v3.7c0,0.2-0.1,0.4-0.2,0.5c-0.1,0.1-0.4,0.2-0.6,0.2
				c-0.7,0-1.2-0.5-1.5-1.5l-0.4-1.5c-0.8-0.5-1.7-0.7-2.8-0.7c-0.7,0-1.3,0.1-1.7,0.4s-0.7,0.6-0.7,1.1c0,0.4,0.2,0.8,0.5,1
				c0.3,0.2,1.1,0.7,2.2,1.3l1.6,0.8c1.6,0.8,2.7,1.6,3.3,2.3c0.7,0.7,1,1.7,1,2.9c0,1.6-0.7,2.7-2,3.4c-1.3,0.7-2.9,1.1-4.9,1.1
				C245.8,66.6,244.6,66.4,243.4,66z"/>
		</g>
		<g>
			<g>
				<path class="st1" d="M276.7,76.7l-1.5-2.7 M278.3,79.7l-0.8-1.4 M280.6,83.6l-1.3-2.3 M274.2,72.5c0,0,0.7-0.4,0.7-0.4
					c0.1-0.1,0.3-0.2,0.4-0.2l5.2-0.4l-3.7-6.4c-0.1-0.2-0.1-0.4-0.1-0.6c0.2-1.1,0.5-2.1,0.8-3.1l-6.9,3.9c-0.3,0.2-0.6,0.2-0.9,0
					c-0.1-0.1-0.3-0.2-0.4-0.4c-0.2-0.4-0.1-1,0.3-1.2l9-5.1c1.7-3.2,4.4-5.9,7.6-7.8c9.5-5.4,21.7-2.1,27.2,7.4
					c2.6,4.6,3.3,10,1.9,15.1c-1.4,5.1-4.7,9.4-9.3,12c-3.3,1.9-6.9,2.7-10.6,2.6c0,0,0,0-0.1,0l-8.9,5.1c-0.3,0.2-0.6,0.2-0.9,0
					c-0.1-0.1-0.3-0.2-0.4-0.4c-0.2-0.4-0.1-1,0.3-1.2l6.9-3.9c-1-0.2-2.1-0.5-3.1-0.9c0,0-0.1,0-0.1,0c-0.2-0.1-0.3-0.2-0.4-0.4
					l-3.5-6.2l-3,4.2c-0.1,0.1-0.1,0.2-0.2,0.2c-0.1,0.1-0.7,0.6-0.8,0.6 M312.1,59.1c-1.8-3.1-4.3-5.5-7.3-7
					c-1.3-0.7-2.7-1.2-4.2-1.6l13.1,22.9c0.1-0.2,0.1-0.3,0.2-0.5C315.1,68.2,314.4,63.3,312.1,59.1z M276.9,73.6l4.9,8.6l2.7-3.8
					l-3-5.2L276.9,73.6z M278.6,64.5l11.8,20.7c2.6,0.9,5.3,1.2,8,0.9l-0.4-0.7c-0.2-0.4-0.1-1,0.3-1.2c0.4-0.2,1-0.1,1.2,0.3
					l0.8,1.3c1.8-0.4,3.5-1,5.1-1.9c3.4-1.9,5.9-4.8,7.5-8.3l-14.5-25.4c-3.7-0.4-7.5,0.3-10.9,2.3c-1.6,0.9-3,2.1-4.2,3.4l0,0
					c0.2,0.4,0.1,1-0.3,1.2c-0.2,0.1-0.5,0.1-0.8,0C280.4,59.2,279.2,61.7,278.6,64.5z"/>
				<path class="st1" d="M284.6,58.3l1,1.7c0.2,0.4,0.1,1-0.3,1.2c-0.3,0.2-0.6,0.2-0.9,0c-0.1-0.1-0.3-0.2-0.4-0.4l-1-1.7
					c-0.2-0.4-0.1-1,0.3-1.2C283.8,57.7,284.4,57.9,284.6,58.3z"/>
				<path class="st1" d="M287.1,62.7l1,1.7c0.2,0.4,0.1,1-0.3,1.2c-0.3,0.2-0.6,0.2-0.9,0c-0.1-0.1-0.3-0.2-0.4-0.4l-1-1.7
					c-0.2-0.4-0.1-1,0.3-1.2C286.3,62.1,286.9,62.2,287.1,62.7z"/>
				<path class="st1" d="M294.5,75.7l1,1.7c0.2,0.4,0.1,1-0.3,1.2c-0.3,0.2-0.6,0.2-0.9,0c-0.1-0.1-0.3-0.2-0.4-0.4l-1-1.7
					c-0.2-0.4-0.1-1,0.3-1.2C293.7,75.1,294.3,75.3,294.5,75.7z"/>
				<path class="st1" d="M297,80l1,1.7c0.2,0.4,0.1,1-0.3,1.2c-0.3,0.2-0.6,0.2-0.9,0c-0.1-0.1-0.3-0.2-0.4-0.4l-1-1.7
					c-0.2-0.4-0.1-1,0.3-1.2C296.2,79.5,296.8,79.6,297,80z"/>
				<path class="st1" d="M292.1,71.4l1,1.7c0.2,0.4,0.1,1-0.3,1.2c-0.3,0.2-0.6,0.2-0.9,0c-0.1-0.1-0.3-0.2-0.4-0.4l-1-1.7
					c-0.2-0.4-0.1-1,0.3-1.2C291.3,70.8,291.8,70.9,292.1,71.4z"/>
				<path class="st1" d="M289.6,67l1,1.7c0.2,0.4,0.1,1-0.3,1.2c-0.3,0.2-0.6,0.2-0.9,0c-0.1-0.1-0.3-0.2-0.4-0.4l-1-1.7
					c-0.2-0.4-0.1-1,0.3-1.2C288.8,66.4,289.3,66.6,289.6,67z"/>
				<path class="st1" d="M309.6,74.7c0.2-0.4,0.8-0.6,1.2-0.3c0.4,0.2,0.6,0.8,0.3,1.2c-1.5,2.8-3.7,5.2-6.2,7.1
					c-0.3,0.2-0.7,0.2-1,0.1c-0.1-0.1-0.2-0.2-0.3-0.3c-0.3-0.4-0.2-1,0.2-1.3C306.2,79.4,308.2,77.2,309.6,74.7z"/>
				<path class="st1" d="M308.3,47c-6.8-5.3-17-5.4-23.9-0.2c-0.3,0.2-0.7,0.2-1,0.1c-0.1-0.1-0.2-0.1-0.3-0.3
					c-0.3-0.4-0.2-1,0.2-1.3c7.5-5.6,18.7-5.5,26.1,0.2c0.4,0.3,0.5,0.9,0.2,1.3C309.2,47.2,308.7,47.3,308.3,47z"/>
				<path class="st1" d="M264.8,58.5c5.6-2,9.6-4.6,12.3-7.9c0.3-0.4,0.9-0.5,1.3-0.1c0.4,0.3,0.5,0.9,0.1,1.3
					c-2.8,3.6-7.1,6.4-13.1,8.5c-0.2,0.1-0.5,0.1-0.7,0c-0.2-0.1-0.4-0.3-0.4-0.5C264.1,59.2,264.4,58.6,264.8,58.5z"/>
			</g>
			<g>
				<path class="st1" d="M311.2,95.3c0.9,0.4,2.1,0,2.5-0.9c0,0,0,0,0-0.1c0.2-0.5,0.2-1,0-1.4c-0.2-0.5-0.6-0.8-1-1
					c-0.1,0-0.1-0.1-0.2-0.1c-0.9-0.2-1.9,0.3-2.2,1.1c-0.2,0.5-0.2,1,0,1.5C310.4,94.8,310.7,95.1,311.2,95.3z"/>
				<path class="st1" d="M176.3,127.9c0,0-0.1,0-0.1,0c-0.4-0.1-0.9-0.1-1.3,0.1c-0.4,0.2-0.8,0.6-0.9,1.1c-0.3,1,0.2,2.1,1.2,2.4
					c0.5,0.2,1,0.1,1.5-0.1c0.4-0.2,0.8-0.7,1-1.1C177.7,129.3,177.2,128.2,176.3,127.9z"/>
				<path class="st1" d="M148.5,108.1c0,0-0.1,0-0.1,0c-0.4-0.1-0.9-0.1-1.3,0.1c-0.4,0.2-0.8,0.6-0.9,1.1c-0.3,1,0.2,2.1,1.2,2.4
					c0.5,0.2,1,0.1,1.5-0.1c0.4-0.2,0.8-0.7,1-1.1C150,109.4,149.4,108.4,148.5,108.1z"/>
				<path class="st1" d="M174.5,106.4C174.4,106.4,174.4,106.4,174.5,106.4c-2.9-0.6-5.7-1.3-8.6-2.1c-1.1-0.3-2,0.3-2.3,1.3
					c-0.3,1,0.3,2,1.3,2.3c2.9,0.8,5.8,1.5,8.7,2.1c1,0.2,2-0.4,2.2-1.4C176,107.6,175.4,106.7,174.5,106.4z"/>
				<path class="st1" d="M141.6,88.7c25.7,14.9,52.4,15.8,77.4,14.7c1,0,1.8-0.9,1.8-1.9c0-0.8-0.6-1.5-1.4-1.7
					c-0.2,0-0.4-0.1-0.5-0.1c-24.4,1.2-50.5,0.2-75.3-14.2c-0.9-0.5-2-0.2-2.5,0.7C140.4,87.1,140.7,88.2,141.6,88.7z"/>
				<path class="st1" d="M180.1,92.5c26.3,5.9,60.8,2.2,87.4-9.1l-0.1,0.2c-13.1,7.9-28,12-38.3,14.1c-1,0.2-1.6,1.2-1.4,2.2
					c0.2,1,1.2,1.6,2.2,1.4c10.5-2.1,25.9-6.3,39.5-14.5l1.1-0.1c-24.4,17.9-58.2,25.9-89.5,21c-1-0.2-2,0.5-2.1,1.5
					c-0.2,1,0.5,1.9,1.5,2.1c33.9,5.3,70.7-4.1,96.2-24.7c0.2-0.1,0.3-0.3,0.4-0.5l-6.7-11.4c-19.3,6.5-42.5,9.4-63.9,8
					c-1-0.1-1.9,0.7-2,1.7c-0.1,1,0.7,1.9,1.7,2c20,1.3,41.6-1.1,60.3-6.6c-25.9,11.2-59.8,14.9-85.4,9.1c-1-0.2-2,0.4-2.2,1.4
					C178.5,91.3,179.1,92.3,180.1,92.5z"/>
				<path class="st1" d="M165.7,87.3c2,0.8,3.9,1.6,5.9,2.4c0.9,0.4,2-0.1,2.4-1c0.4-0.9-0.1-2-1-2.4c-2-0.8-3.9-1.6-5.9-2.4
					c-0.1,0-0.2-0.1-0.2-0.1c-0.9-0.2-1.8,0.2-2.2,1.1C164.4,85.9,164.8,87,165.7,87.3z"/>
				<path class="st1" d="M262.1,101c-0.5-0.1-1-0.1-1.4,0.2c-10.8,6.4-22.5,11.1-34.8,14c-1,0.2-1.6,1.2-1.4,2.2
					c0.2,1,1.2,1.6,2.2,1.4c12.6-2.9,24.7-7.8,35.8-14.4c0.9-0.5,1.2-1.7,0.6-2.5C263,101.5,262.6,101.2,262.1,101z"/>
				<path class="st1" d="M271.1,94.2c-0.5-0.1-1-0.1-1.4,0.2l-1.2,0.7c-0.9,0.5-1.2,1.6-0.7,2.5c0.5,0.9,1.6,1.2,2.5,0.7l1.3-0.7
					c0.9-0.5,1.2-1.6,0.7-2.5C272,94.6,271.6,94.3,271.1,94.2z"/>
				<path class="st1" d="M222.9,80.8c5.8,0,11.6-0.6,17.3-1.9c1-0.2,1.6-1.2,1.4-2.2c-0.2-0.7-0.7-1.2-1.3-1.4
					c-0.3-0.1-0.6-0.1-0.9,0c-5.4,1.2-11,1.8-16.5,1.8c-1,0-1.8,0.8-1.8,1.8C221,80,221.9,80.8,222.9,80.8z"/>
				<path class="st1" d="M214.8,79.8l2.1,0c1,0,1.9-0.8,1.9-1.8c0-0.9-0.6-1.6-1.4-1.8c-0.1,0-0.3-0.1-0.4-0.1l-2.1,0
					c-1,0-1.9,0.8-1.9,1.8C213,79,213.8,79.8,214.8,79.8z"/>
			</g>
		</g>
	</g>
</g>
<g id="Layer_2">
</g>
</svg>
